# xmcd
#
# Track frame offsets:
#	150
#	5462
#	22257
#	31552
#	41107
#	48977
#	55955
#	60297
#	71005
#	92890
#	100900
#	112560
#	118292
#	127779
#	133402
#	151242
#	160662
#	170005
#	179612
#	184137
#	189380
#	198262
#	212257
#	218297
#	224737
#	237317
#	245052
#	256037
#	263250
#	275122
#	284627
#	289885
#	298622
#	311407
#
# Disc length: 4368 seconds
#
# Revision: 0
# Processed by: cddbd v1.4PL0 Copyright (c) Steve Scherf et al.
# Submitted via: dBpowerAMP V4.0
#
DISCID=f6110e22
DTITLE=Tim and Willy - Tickle Me El Nino
DYEAR=1900
DGENRE=Comedy
TTITLE0=We're Back
TTITLE1=Bryan White
TTITLE2=Chinese New Year
TTITLE3=John Tesh
TTITLE4=Daddy's Tummy
TTITLE5=Richard Jenni
TTITLE6=The Jumbo Sale
TTITLE7=El Nino vs. the Baby Seals
TTITLE8=Trisha Yearwood
TTITLE9=Joe Theismann - Things that go "snap"
TTITLE10=Old Ave Lincoln's Hat
TTITLE11=My Dog Just Farted
TTITLE12=Willy's Wrigley Anthem
TTITLE13=The Legendary Paul Bottoms
TTITLE14=BRS-49
TTITLE15=Did I Shave Some Points For This?
TTITLE16=A Tribute to Princess Di
TTITLE17=Heywood Banks-the sister song
TTITLE18=Gay Rodeo
TTITLE19=Johnny Cash
TTITLE20=Pablo Franscico
TTITLE21=Martina BcBride
TTITLE22=Brian Reagan
TTITLE23=Jay Bell Rock
TTITLE24=Schizo Auto
TTITLE25=George Lopez
TTITLE26=David Lee Murphy
TTITLE27=Johnny Paycheck
TTITLE28=Running Out of Places to Pierce
TTITLE29=Willy D. and Billy Dean
TTITLE30=Tall Ski Trees
TTITLE31=Super Dave
TTITLE32=Terry Clark
TTITLE33=What Were We Thinking?
EXTD=
EXTT0=
EXTT1=
EXTT2=
EXTT3=
EXTT4=
EXTT5=
EXTT6=
EXTT7=
EXTT8=
EXTT9=
EXTT10=
EXTT11=
EXTT12=
EXTT13=
EXTT14=
EXTT15=
EXTT16=
EXTT17=
EXTT18=
EXTT19=
EXTT20=
EXTT21=
EXTT22=
EXTT23=
EXTT24=
EXTT25=
EXTT26=
EXTT27=
EXTT28=
EXTT29=
EXTT30=
EXTT31=
EXTT32=
EXTT33=
PLAYORDER=
